<svg xmlns="http://www.w3.org/2000/svg" version="1.0" preserveAspectRatio="xMidYMid meet" viewBox="20 25.11 543 357.99">

<g transform="translate(0.000000,403.000000) scale(0.100000,-0.100000)" fill="#d64574" stroke="none">
<path d="M1210 3767 c-25 -8 -41 -23 -54 -50 -24 -49 -51 -66 -117 -74 -100 -10 -129 -51 -129 -178 0 -118 26 -154 118 -166 47 -7 62 -14 90 -43 l32 -36 0 -165 c0 -172 8 -214 45 -245 14 -12 59 -16 199 -20 188 -6 230 -15 241 -51 9 -27 -11 -55 -46 -68 -20 -7 -128 -11 -293 -11 -241 0 -263 -2 -293 -20 -17 -10 -37 -28 -42 -39 -8 -14 -10 -144 -9 -403 l3 -383 321 -5 c299 -5 323 -6 343 -24 29 -27 26 -43 -11 -66 -31 -19 -51 -20 -301 -20 -228 0 -274 -2 -303 -16 -51 -24 -64 -58 -64 -163 0 -81 2 -92 26 -120 14 -17 42 -35 62 -41 21 -5 151 -10 299 -10 l262 0 28 -24 c23 -20 26 -28 17 -43 -24 -39 -49 -43 -327 -43 -228 0 -274 -2 -303 -16 -51 -24 -64 -58 -64 -163 0 -86 2 -92 29 -123 l29 -33 216 -5 c186 -4 218 -7 232 -22 14 -14 15 -22 6 -42 -22 -48 -87 -109 -147 -138 -54 -25 -71 -28 -163 -28 -173 0 -202 -26 -202 -181 0 -90 0 -91 34 -125 l34 -34 222 0 222 0 51 27 c40 22 74 58 164 170 152 193 165 195 280 46 132 -169 149 -188 198 -215 l50 -28 215 0 c236 0 245 2 275 60 21 40 20 171 -1 215 -24 50 -65 65 -181 65 -91 0 -105 3 -162 31 -43 21 -75 47 -107 86 -81 100 -58 113 203 113 l193 0 32 29 c32 28 33 32 36 119 3 69 0 98 -13 125 -30 63 -49 67 -353 67 -281 0 -323 5 -343 42 -9 17 -7 25 10 42 21 20 32 21 319 26 323 5 328 6 362 63 26 41 28 172 4 222 -29 61 -50 65 -353 65 -215 0 -279 3 -306 15 -45 18 -54 41 -26 68 20 20 35 22 199 28 172 6 180 7 243 37 77 37 178 137 212 209 20 44 22 66 25 273 2 146 0 238 -8 262 -19 65 -32 68 -340 68 -290 0 -331 6 -345 50 -14 43 51 80 142 80 23 0 67 9 98 21 48 18 68 34 136 112 83 96 114 157 126 246 11 89 56 131 140 131 25 0 43 8 64 29 28 29 29 32 29 136 0 143 -15 164 -127 179 -65 9 -87 24 -109 69 -26 56 -67 70 -195 65 -109 -4 -143 -19 -152 -67 -4 -17 -18 -38 -34 -48 -24 -16 -54 -18 -283 -18 -229 0 -259 2 -283 18 -16 10 -30 31 -34 47 -9 49 -45 64 -158 67 -62 2 -113 -2 -135 -10z m870 -485 c19 -9 41 -29 50 -44 13 -25 13 -29 -6 -55 -34 -46 -69 -52 -304 -52 -235 0 -270 6 -304 52 -19 26 -19 30 -6 55 31 56 62 62 310 62 194 0 230 -2 260 -18z m-482 -987 c40 -24 50 -56 28 -91 -25 -37 -60 -46 -178 -42 -97 3 -109 5 -132 27 -32 30 -33 64 -4 91 33 31 74 40 168 37 63 -2 94 -8 118 -22z m690 -2 c42 -31 49 -49 32 -80 -24 -43 -55 -53 -163 -53 -105 0 -147 13 -167 50 -21 39 12 85 72 101 58 15 197 4 226 -18z" fill="#d64574"/>
<path d="M367 3666 c-114 -97 -122 -156 -35 -251 90 -99 145 -110 225 -46 85 66 103 95 103 158 l0 55 -72 69 c-67 63 -77 69 -115 69 -36 0 -51 -7 -106 -54z" fill="#d64574"/>
<path d="M5350 3708 c-43 -12 -70 -35 -70 -59 0 -10 -12 -27 -27 -36 -25 -17 -92 -18 -1038 -23 -941 -5 -1012 -6 -1042 -23 -48 -26 -63 -63 -63 -157 0 -94 15 -131 63 -157 30 -17 96 -18 1067 -18 l1035 0 60 24 c48 19 79 43 151 115 95 95 129 147 139 213 8 54 -19 104 -65 120 -42 14 -161 15 -210 1z" fill="#d64574"/>
<path d="M3168 3034 c-53 -28 -58 -53 -58 -289 0 -238 5 -261 60 -290 19 -10 57 -15 113 -15 71 0 89 4 118 23 36 24 58 70 58 126 1 25 11 43 40 72 l39 39 823 0 c798 0 825 -1 856 -20 40 -24 55 -51 64 -120 7 -45 14 -61 43 -87 35 -32 37 -33 131 -33 95 0 96 0 133 34 l37 34 3 218 c3 237 0 257 -50 299 l-30 25 -1176 0 c-1022 -1 -1181 -3 -1204 -16z" fill="#d64574"/>
<path d="M352 2927 c-110 -111 -108 -152 16 -261 55 -49 68 -56 104 -56 38 0 47 6 115 73 70 71 73 75 73 121 0 42 -5 53 -47 102 -60 69 -99 94 -149 94 -36 0 -47 -7 -112 -73z" fill="#d64574"/>
<path d="M365 2346 c-64 -28 -60 25 -65 -825 -5 -822 -5 -822 -51 -834 -32 -9 -49 -67 -49 -172 0 -165 46 -207 165 -151 73 34 236 205 258 270 15 45 17 127 17 845 0 616 -3 802 -13 821 -20 40 -72 60 -157 60 -41 -1 -89 -7 -105 -14z" fill="#d64574"/>
<path d="M3173 2250 c-47 -28 -63 -67 -63 -152 0 -88 20 -133 70 -160 33 -17 81 -18 921 -18 783 0 888 -2 899 -15 23 -27 -3 -58 -132 -158 -67 -52 -135 -108 -150 -124 -41 -43 -77 -124 -84 -189 -7 -69 -23 -98 -67 -124 -31 -19 -55 -20 -690 -20 -714 0 -701 1 -745 -55 -19 -24 -22 -40 -22 -123 l0 -94 39 -39 39 -39 663 0 c631 0 666 -1 706 -19 60 -28 73 -60 73 -176 0 -116 -13 -148 -73 -176 -40 -18 -74 -19 -612 -19 -554 0 -571 -1 -603 -20 -43 -26 -62 -74 -62 -152 0 -76 21 -123 70 -156 l34 -23 626 3 c739 4 673 -7 819 133 134 130 143 151 151 350 3 95 11 169 18 182 7 12 27 32 44 45 32 22 42 23 268 28 255 5 267 8 300 63 24 39 27 160 6 210 -28 68 -42 71 -327 77 -235 5 -259 7 -278 24 -12 11 -21 30 -21 43 0 63 53 115 320 318 232 176 249 191 286 258 24 44 29 67 32 143 5 105 -8 142 -61 174 -31 19 -59 20 -1197 20 -1138 0 -1166 -1 -1197 -20z" fill="#d64574"/>
</g>
</svg>